<svg width="192" height="39" viewBox="0 0 192 39" fill="none" xmlns="http://www.w3.org/2000/svg">
<path d="M15.2788 5.10205C14.8818 5.10205 14.5011 5.25937 14.2204 5.53939C13.9397 5.81942 13.7819 6.19922 13.7819 6.59523C13.7819 6.79132 13.8207 6.98549 13.8959 7.16665C13.9711 7.34781 14.0814 7.51241 14.2204 7.65107L19.7197 13.1368C20.1566 13.5726 20.2873 14.228 20.0509 14.7974C19.8144 15.3668 19.2574 15.7381 18.6395 15.7381H18.334C15.9032 15.7381 13.5719 16.7014 11.853 18.416C10.1341 20.1306 9.16846 22.4561 9.16846 24.881C9.16846 26.0934 9.65128 27.2561 10.5107 28.1135C11.3702 28.9708 12.5358 29.4524 13.7512 29.4524H22.9168C22.0731 29.4524 21.3892 28.7702 21.3892 27.9286C21.3892 24.4965 24.059 21.8333 27.4996 21.8333H29.0272C29.4323 21.8333 29.8209 21.6728 30.1074 21.387C30.3938 21.1013 30.5548 20.7137 30.5548 20.3095V18.7857C30.5548 14.5987 27.1142 11.1667 22.9168 11.1667H22.6113C22.2062 11.1667 21.8176 11.0061 21.5311 10.7204L16.3373 5.53939C16.1983 5.40074 16.0333 5.29075 15.8517 5.21571C15.6701 5.14067 15.4754 5.10205 15.2788 5.10205Z" fill="white"/>
<path d="M27.4995 11.9895V5.07142C27.4995 4.66728 27.3386 4.27969 27.0521 3.99392C26.7656 3.70815 26.3771 3.54761 25.9719 3.54761C25.5668 3.54761 25.1782 3.70815 24.8918 3.99392C24.6053 4.27969 24.4443 4.66728 24.4443 5.07142V9.64285L27.4995 11.9895Z" fill="white"/>
<path d="M8.77031 18.8191C8.48395 18.3136 8.05875 17.9002 7.54477 17.6275C7.03079 17.3549 6.44942 17.2344 5.86912 17.2803C5.28881 17.3261 4.73371 17.5364 4.26917 17.8863C3.80463 18.2363 3.44998 18.7113 3.24698 19.2556C3.04397 19.7998 3.00105 20.3906 3.12328 20.9583C3.24551 21.526 3.5278 22.0471 3.93691 22.4602C4.34602 22.8733 4.86493 23.1612 5.43255 23.29C6.00016 23.4189 6.59287 23.3833 7.14088 23.1874L8.77031 18.8191Z" fill="white"/>
<path fill-rule="evenodd" clip-rule="evenodd" d="M22.7314 1.83894C23.5909 0.981632 24.7565 0.5 25.9719 0.5C27.1874 0.5 28.353 0.981632 29.2125 1.83894C30.0719 2.69625 30.5547 3.85901 30.5547 5.07143V11.9895C30.5547 12.8311 29.8708 13.5133 29.0271 13.5133C28.1835 13.5133 27.4995 12.8311 27.4995 11.9895V5.07143C27.4995 4.66729 27.3386 4.27971 27.0521 3.99394C26.7656 3.70817 26.3771 3.54762 25.9719 3.54762C25.5668 3.54762 25.1783 3.70817 24.8918 3.99394C24.6053 4.27971 24.4444 4.66729 24.4444 5.07143V9.64287C24.4444 10.4844 23.7604 11.1667 22.9168 11.1667C22.0731 11.1667 21.3892 10.4844 21.3892 9.64287V5.07143C21.3892 3.85901 21.872 2.69625 22.7314 1.83894Z" fill="#3C6BF4"/>
<path fill-rule="evenodd" clip-rule="evenodd" d="M5.62789 14.2421C6.7885 14.1504 7.95122 14.3914 8.97918 14.9366C10.0071 15.4819 10.8575 16.3087 11.4303 17.3199C11.8453 18.0526 11.5863 18.9822 10.8518 19.3962C10.1173 19.8102 9.18536 19.5518 8.77033 18.8191C8.48396 18.3135 8.05876 17.9001 7.54478 17.6275C7.0308 17.3549 6.44944 17.2344 5.86913 17.2802C5.28883 17.3261 4.73373 17.5364 4.26919 17.8863C3.80465 18.2362 3.45 18.7113 3.24699 19.2555C3.04398 19.7997 3.00107 20.3905 3.1233 20.9582C3.24553 21.526 3.52782 22.0471 3.93693 22.4602C4.34604 22.8733 4.86495 23.1612 5.43256 23.29C6.00018 23.4188 6.59288 23.3832 7.14089 23.1874C7.93512 22.9035 8.80966 23.3156 9.09422 24.1079C9.37879 24.9001 8.96563 25.7725 8.1714 26.0564C7.07538 26.4481 5.88998 26.5193 4.75474 26.2617C3.61951 26.004 2.58169 25.4282 1.76347 24.602C0.945248 23.7758 0.380676 22.7336 0.136217 21.5982C-0.108242 20.4627 -0.0224134 19.2812 0.3836 18.1927C0.789613 17.1043 1.49891 16.1542 2.42799 15.4543C3.35708 14.7544 4.46727 14.3338 5.62789 14.2421Z" fill="#3C6BF4"/>
<path fill-rule="evenodd" clip-rule="evenodd" d="M5.62789 14.2421C6.7885 14.1504 7.95122 14.3914 8.97918 14.9366C10.0071 15.4819 10.8575 16.3087 11.4303 17.3199C11.8453 18.0526 11.5863 18.9822 10.8518 19.3962C10.1173 19.8102 9.18536 19.5518 8.77033 18.8191C8.48396 18.3135 8.05876 17.9001 7.54478 17.6275C7.0308 17.3549 6.44944 17.2344 5.86913 17.2802C5.28883 17.3261 4.73373 17.5364 4.26919 17.8863C3.80465 18.2362 3.45 18.7113 3.24699 19.2555C3.04398 19.7997 3.00107 20.3905 3.1233 20.9582C3.24553 21.526 3.52782 22.0471 3.93693 22.4602C4.34604 22.8733 4.86495 23.1612 5.43256 23.29C6.00018 23.4188 6.59288 23.3832 7.14089 23.1874C7.93512 22.9035 8.80966 23.3156 9.09422 24.1079C9.37879 24.9001 8.96563 25.7725 8.1714 26.0564C7.07538 26.4481 5.88998 26.5193 4.75474 26.2617C3.61951 26.004 2.58169 25.4282 1.76347 24.602C0.945248 23.7758 0.380676 22.7336 0.136217 21.5982C-0.108242 20.4627 -0.0224134 19.2812 0.3836 18.1927C0.789613 17.1043 1.49891 16.1542 2.42799 15.4543C3.35708 14.7544 4.46727 14.3338 5.62789 14.2421Z" fill="white" fill-opacity="0.7"/>
<path fill-rule="evenodd" clip-rule="evenodd" d="M15.2789 5.10203C14.8819 5.10203 14.5011 5.25935 14.2204 5.53938C13.9397 5.8194 13.782 6.1992 13.782 6.59522C13.782 6.7913 13.8207 6.98547 13.8959 7.16663C13.9711 7.34779 14.0814 7.5124 14.2204 7.65105L19.7197 13.1368C20.1566 13.5726 20.2873 14.228 20.0509 14.7974C19.8144 15.3668 19.2574 15.7381 18.6396 15.7381H18.334C15.9032 15.7381 13.5719 16.7013 11.853 18.416C10.1341 20.1306 9.16847 22.4561 9.16847 24.8809C9.16847 26.0934 9.6513 27.2561 10.5107 28.1134C11.3702 28.9707 12.5358 29.4524 13.7513 29.4524H22.9168H25.972C26.8157 29.4524 27.4996 30.1346 27.4996 30.9762C27.4996 31.8178 26.8157 32.5 25.972 32.5H13.7513C11.7255 32.5 9.78279 31.6973 8.35039 30.2684C6.91799 28.8396 6.11328 26.9016 6.11328 24.8809C6.11328 21.6478 7.40082 18.5471 9.69266 16.261C11.2614 14.6961 13.2127 13.6007 15.3273 13.0652L12.06 9.80605C11.6373 9.3844 11.302 8.88382 11.0733 8.33291C10.8445 7.78199 10.7268 7.19152 10.7268 6.59522C10.7268 5.39092 11.2064 4.23595 12.06 3.38438C12.9137 2.53282 14.0716 2.05441 15.2789 2.05441C15.8766 2.05441 16.4686 2.17186 17.0209 2.40006C17.5731 2.62826 18.075 2.96273 18.4977 3.38438L23.2492 8.12414C28.9815 8.30065 33.61 13.0265 33.61 18.7857V20.3095C33.61 21.5219 33.1272 22.6847 32.2677 23.542C31.4083 24.3993 30.2426 24.8809 29.0272 24.8809H27.4996C25.7464 24.8809 24.4444 26.1797 24.4444 27.9286C24.4444 28.7701 23.7605 29.4524 22.9168 29.4524C22.0732 29.4524 21.3892 28.7701 21.3892 27.9286C21.3892 24.4965 24.059 21.8333 27.4996 21.8333H29.0272C29.4324 21.8333 29.8209 21.6728 30.1074 21.387C30.3939 21.1012 30.5548 20.7137 30.5548 20.3095V18.7857C30.5548 14.5987 27.1142 11.1666 22.9168 11.1666H22.6113C22.2062 11.1666 21.8176 11.0061 21.5311 10.7203L16.3373 5.53938C16.1983 5.40072 16.0333 5.29074 15.8517 5.2157C15.6701 5.14066 15.4754 5.10203 15.2789 5.10203Z" fill="#3C6BF4"/>
<path fill-rule="evenodd" clip-rule="evenodd" d="M19.9993 25.3696C19.5038 25.0499 18.9261 24.8802 18.336 24.8809C17.4923 24.882 16.8075 24.2007 16.8064 23.3591C16.8053 22.5175 17.4883 21.8344 18.332 21.8333C19.5122 21.8318 20.6677 22.1712 21.6587 22.8107C22.6497 23.4501 23.4338 24.3621 23.9164 25.4365C24.3989 26.511 24.5592 27.7018 24.3778 28.8651C24.1965 30.0285 23.6812 31.1145 22.8944 31.9921C22.332 32.6193 21.3662 32.673 20.7374 32.112C20.1086 31.5509 20.0548 30.5876 20.6172 29.9603C21.0106 29.5215 21.2682 28.9785 21.3589 28.3968C21.4496 27.8152 21.3694 27.2198 21.1282 26.6825C20.8869 26.1453 20.4948 25.6893 19.9993 25.3696Z" fill="#3C6BF4"/>
<path fill-rule="evenodd" clip-rule="evenodd" d="M24.4446 17.2618C24.4446 16.4202 25.1285 15.738 25.9722 15.738H25.9875C26.8311 15.738 27.515 16.4202 27.515 17.2618C27.515 18.1034 26.8311 18.7856 25.9875 18.7856H25.9722C25.1285 18.7856 24.4446 18.1034 24.4446 17.2618Z" fill="#3C6BF4"/>
<path fill-rule="evenodd" clip-rule="evenodd" d="M24.4446 17.2618C24.4446 16.4202 25.1285 15.738 25.9722 15.738H25.9875C26.8311 15.738 27.515 16.4202 27.515 17.2618C27.515 18.1034 26.8311 18.7856 25.9875 18.7856H25.9722C25.1285 18.7856 24.4446 18.1034 24.4446 17.2618Z" fill="black" fill-opacity="0.5"/>
<path fill-rule="evenodd" clip-rule="evenodd" d="M52.6934 31.494C52.6934 32.0463 52.2446 32.494 51.691 32.494H50.6524C50.0987 32.494 49.6499 32.0463 49.6499 31.494V12.006C49.6499 11.4537 50.0987 11.006 50.6524 11.006H58.5119C59.9692 11.006 61.3321 11.3186 62.5842 11.9531C63.8631 12.5916 64.8904 13.5059 65.6452 14.6891C66.413 15.8927 66.7844 17.2684 66.7844 18.782C66.7844 20.2521 66.3975 21.6186 65.6264 22.86C64.874 24.1017 63.8364 25.0595 62.5317 25.721C61.3688 26.312 60.017 26.586 58.5119 26.586H52.6934V31.494ZM52.6934 23.55H58.5119C59.6147 23.55 60.433 23.3767 61.0196 23.0912L61.0314 23.0855C61.8503 22.7002 62.5022 22.128 63.0007 21.3509C63.4933 20.5832 63.7408 19.7352 63.7408 18.782C63.7408 17.8509 63.4951 17.0116 63.0007 16.2411C62.5051 15.4687 61.8475 14.8963 61.0099 14.5095L60.9916 14.5008C60.4031 14.2144 59.5932 14.042 58.5119 14.042H52.6934V23.55ZM88.2464 32.033C88.0621 32.3202 87.7438 32.494 87.402 32.494H68.9884C68.6465 32.494 68.3283 32.3202 68.144 32.033C67.9597 31.7458 67.9349 31.3847 68.0781 31.0751L77.2849 11.1671C77.4487 10.8129 77.8041 10.586 78.1952 10.586C78.5863 10.586 78.9417 10.8129 79.1055 11.1671L88.3123 31.0751C88.4555 31.3847 88.4306 31.7458 88.2464 32.033ZM78.1952 16.4397L72.1821 29.458H84.2083L78.1952 16.4397ZM93.219 32.494C92.6653 32.494 92.2165 32.0463 92.2165 31.494V12.006C92.2165 11.4537 92.6653 11.006 93.219 11.006H94.2575C94.8112 11.006 95.26 11.4537 95.26 12.006V29.458H107.871C108.425 29.458 108.874 29.9057 108.874 30.458V31.494C108.874 32.0463 108.425 32.494 107.871 32.494H93.219ZM114.278 32.494C113.724 32.494 113.275 32.0463 113.275 31.494V12.006C113.275 11.4537 113.724 11.006 114.278 11.006H115.316C115.87 11.006 116.319 11.4537 116.319 12.006V29.458H128.93C129.484 29.458 129.932 29.9057 129.932 30.458V31.494C129.932 32.0463 129.484 32.494 128.93 32.494H114.278ZM149.199 28.4137C148.401 29.794 147.305 30.8967 145.923 31.7109L145.914 31.7167C144.523 32.5156 143.002 32.914 141.371 32.914C139.741 32.914 138.22 32.5155 136.829 31.7166L136.819 31.711C135.439 30.8972 134.335 29.796 133.519 28.4187L133.513 28.409C132.712 27.0214 132.313 25.5047 132.313 23.878V19.622C132.313 17.9953 132.712 16.4786 133.513 15.091L133.519 15.0812C134.335 13.7034 135.441 12.61 136.824 11.8142C138.215 10.9954 139.738 10.586 141.371 10.586C143.005 10.586 144.528 10.9954 145.919 11.8142C147.303 12.6104 148.401 13.7054 149.199 15.0864C150.019 16.4739 150.43 17.9923 150.43 19.622V23.878C150.43 25.5077 150.019 27.0261 149.199 28.4137ZM144.376 29.0899C145.313 28.5409 146.038 27.8154 146.567 26.905L146.57 26.9003C147.115 25.9728 147.386 24.9717 147.386 23.878V19.622C147.386 18.5284 147.115 17.5394 146.573 16.6343L146.563 16.6165C146.035 15.6901 145.313 14.9702 144.384 14.4432L144.367 14.4328C143.459 13.8929 142.468 13.622 141.371 13.622C140.275 13.622 139.271 13.893 138.342 14.4367L138.337 14.4394C137.424 14.9666 136.697 15.69 136.146 16.6259C135.621 17.5318 135.356 18.5238 135.356 19.622V23.878C135.356 24.9739 135.62 25.9761 136.147 26.9026C136.695 27.817 137.423 28.5426 138.339 29.0899C139.268 29.6151 140.273 29.878 141.371 29.878C142.473 29.878 143.467 29.6139 144.376 29.0899ZM170.318 11.006C170.871 11.006 171.32 11.4537 171.32 12.006V13.042C171.32 13.5943 170.871 14.042 170.318 14.042H163.938V31.494C163.938 32.0463 163.489 32.494 162.935 32.494H161.925C161.371 32.494 160.922 32.0463 160.922 31.494V14.042H154.543C153.989 14.042 153.54 13.5943 153.54 13.042V12.006C153.54 11.4537 153.989 11.006 154.543 11.006H170.318ZM175.75 12.006C175.75 11.4537 176.199 11.006 176.752 11.006H190.506C191.06 11.006 191.509 11.4537 191.509 12.006V13.042C191.509 13.5943 191.06 14.042 190.506 14.042H178.793V19.938H188.85C189.404 19.938 189.853 20.3857 189.853 20.938V21.974C189.853 22.5263 189.404 22.974 188.85 22.974H178.793V29.458H190.506C191.06 29.458 191.509 29.9057 191.509 30.458V31.494C191.509 32.0463 191.06 32.494 190.506 32.494H176.752C176.199 32.494 175.75 32.0463 175.75 31.494V12.006Z" fill="#3C6BF4"/>
</svg>
