<svg xmlns="http://www.w3.org/2000/svg" version="1.1" xmlns:xlink="http://www.w3.org/1999/xlink" xmlns:svgjs="http://svgjs.dev/svgjs" width="260" height="260"><svg width="260" height="260" viewBox="0 0 260 260" fill="none" xmlns="http://www.w3.org/2000/svg">
<path d="M0 40C0 17.9086 17.9086 0 40 0H220C242.091 0 260 17.9086 260 40V220C260 242.091 242.091 260 220 260H40C17.9086 260 0 242.091 0 220V40Z" fill="#3C6BF4"></path>
<path fill-rule="evenodd" clip-rule="evenodd" d="M162.445 49.3642C167.15 44.649 173.531 42 180.185 42C186.839 42 193.22 44.649 197.925 49.3642C202.63 54.0794 205.274 60.4746 205.274 67.1429V105.192C205.274 109.821 201.529 113.573 196.911 113.573C192.292 113.573 188.548 109.821 188.548 105.192V67.1429C188.548 64.9201 187.667 62.7884 186.098 61.2166C184.53 59.6449 182.403 58.7619 180.185 58.7619C177.967 58.7619 175.84 59.6449 174.272 61.2166C172.703 62.7884 171.822 64.9201 171.822 67.1429V92.2858C171.822 96.9144 168.078 100.667 163.459 100.667C158.841 100.667 155.096 96.9144 155.096 92.2858V67.1429C155.096 60.4746 157.74 54.0794 162.445 49.3642Z" fill="white"></path>
<path fill-rule="evenodd" clip-rule="evenodd" d="M68.8101 117.582C75.164 117.077 81.5294 118.403 87.157 121.401C92.7846 124.4 97.4401 128.948 100.576 134.509C102.848 138.539 101.43 143.652 97.4086 145.929C93.3874 148.206 88.2857 146.785 86.0136 142.755C84.4459 139.974 82.1181 137.701 79.3043 136.201C76.4905 134.702 73.3078 134.039 70.1309 134.291C66.9539 134.543 63.915 135.7 61.3719 137.625C58.8287 139.549 56.8872 142.162 55.7758 145.155C54.6644 148.149 54.4295 151.398 55.0987 154.52C55.7678 157.643 57.3132 160.509 59.5529 162.781C61.7926 165.053 64.6334 166.636 67.7408 167.345C70.8483 168.054 74.093 167.858 77.0932 166.78C81.4412 165.219 86.2289 167.486 87.7868 171.843C89.3446 176.201 87.0828 180.999 82.7347 182.56C76.7345 184.715 70.245 185.106 64.0301 183.689C57.8152 182.272 52.1336 179.105 47.6542 174.561C43.1748 170.017 40.084 164.285 38.7457 158.04C37.4074 151.795 37.8773 145.296 40.1 139.31C42.3228 133.323 46.2059 128.098 51.2922 124.248C56.3785 120.399 62.4563 118.086 68.8101 117.582Z" fill="white" fill-opacity="0.48"></path>
<path fill-rule="evenodd" clip-rule="evenodd" d="M121.645 67.3112C119.472 67.3112 117.387 68.1764 115.851 69.7166C114.314 71.2567 113.45 73.3456 113.45 75.5237C113.45 76.6021 113.662 77.6701 114.074 78.6665C114.486 79.6628 115.09 80.5682 115.851 81.3308L145.957 111.502C148.349 113.899 149.064 117.504 147.77 120.636C146.476 123.767 143.426 125.809 140.044 125.809H138.371C125.063 125.809 112.3 131.107 102.89 140.538C93.4802 149.968 88.1937 162.759 88.1937 176.095C88.1937 182.764 90.8369 189.159 95.542 193.874C100.247 198.589 106.628 201.238 113.282 201.238H163.46H180.186C184.804 201.238 188.548 204.99 188.548 209.619C188.548 214.248 184.804 218 180.186 218H113.282C102.192 218 91.5568 213.585 83.7151 205.726C75.8733 197.868 71.4679 187.209 71.4679 176.095C71.4679 158.313 78.5166 141.259 91.0634 128.685C99.6514 120.079 110.334 114.054 121.91 111.108L104.024 93.1833C101.71 90.8642 99.874 88.111 98.6216 85.081C97.3693 82.0509 96.7247 78.8034 96.7247 75.5237C96.7247 68.9 99.3502 62.5477 104.024 57.8641C108.697 53.1805 115.036 50.5493 121.645 50.5493C124.918 50.5493 128.158 51.1952 131.182 52.4503C134.205 53.7054 136.953 55.545 139.267 57.8641L165.279 83.9327C196.661 84.9035 222 110.895 222 142.571V150.952C222 157.621 219.357 164.016 214.652 168.731C209.947 173.446 203.565 176.095 196.911 176.095H188.548C178.95 176.095 171.823 183.238 171.823 192.857C171.823 197.486 168.078 201.238 163.46 201.238C158.841 201.238 155.097 197.486 155.097 192.857C155.097 173.981 169.713 159.333 188.548 159.333H196.911C199.129 159.333 201.256 158.45 202.825 156.879C204.393 155.307 205.274 153.175 205.274 150.952V142.571C205.274 119.543 186.439 100.667 163.46 100.667H161.787C159.569 100.667 157.442 99.7836 155.874 98.2118L127.44 69.7166C126.679 68.954 125.776 68.349 124.781 67.9363C123.787 67.5236 122.721 67.3112 121.645 67.3112Z" fill="white"></path>
<path fill-rule="evenodd" clip-rule="evenodd" d="M147.488 178.783C144.775 177.024 141.612 176.091 138.382 176.095C133.763 176.101 130.014 172.354 130.008 167.725C130.002 163.096 133.741 159.339 138.36 159.333C144.821 159.325 151.146 161.192 156.572 164.709C161.997 168.225 166.29 173.242 168.932 179.151C171.573 185.06 172.451 191.61 171.458 198.008C170.465 204.407 167.644 210.38 163.337 215.206C160.258 218.656 154.971 218.952 151.528 215.866C148.086 212.78 147.791 207.482 150.87 204.032C153.024 201.618 154.434 198.632 154.931 195.433C155.427 192.233 154.988 188.959 153.667 186.004C152.347 183.049 150.2 180.541 147.488 178.783Z" fill="white"></path>
<path fill-rule="evenodd" clip-rule="evenodd" d="M171.823 134.19C171.823 129.561 175.567 125.809 180.186 125.809H180.269C184.888 125.809 188.632 129.561 188.632 134.19C188.632 138.819 184.888 142.571 180.269 142.571H180.186C175.567 142.571 171.823 138.819 171.823 134.19Z" fill="white" fill-opacity="0.48"></path>
</svg><style>@media (prefers-color-scheme: light) { :root { filter: none; } }
@media (prefers-color-scheme: dark) { :root { filter: none; } }
</style></svg>